<?xml version="1.0" standalone="no"?>
<!DOCTYPE svg PUBLIC "-//W3C//DTD SVG 20010904//EN"
 "http://www.w3.org/TR/2001/REC-SVG-20010904/DTD/svg10.dtd">
<svg version="1.0" xmlns="http://www.w3.org/2000/svg"
 width="90.000000pt" height="90.000000pt" viewBox="0 0 90.000000 90.000000"
 preserveAspectRatio="xMidYMid meet">
<metadata>
Created by potrace 1.11, written by Peter Selinger 2001-2013
</metadata>
<g transform="translate(0.000000,90.000000) scale(0.100000,-0.100000)"
fill="#000000" stroke="none">
<path d="M280 801 c-30 -15 -71 -37 -90 -49 -19 -12 -44 -26 -55 -31 -46 -21
-103 -71 -119 -105 -14 -30 -16 -61 -14 -194 2 -86 5 -163 8 -171 13 -38 105
-112 175 -140 6 -2 27 -15 48 -28 25 -16 50 -23 70 -21 l31 3 1 145 1 145 -30
27 c-16 15 -32 26 -35 26 -16 -4 -81 46 -81 63 0 23 36 44 53 31 7 -6 29 -19
50 -31 40 -23 39 -24 41 49 1 25 5 51 9 58 10 15 44 16 53 0 4 -7 9 -71 10
-143 0 -71 2 -131 3 -133 0 -1 25 11 55 27 45 25 56 28 71 17 26 -19 15 -45
-30 -69 -22 -12 -41 -25 -43 -29 -2 -5 -10 -8 -18 -8 -8 0 -14 -5 -14 -11 0
-5 -4 -8 -9 -5 -14 9 -18 -12 -17 -89 1 -68 2 -70 27 -73 16 -2 51 10 85 29
33 18 76 41 97 53 86 46 126 107 122 186 0 19 4 38 9 43 8 5 7 10 -2 16 -8 4
-14 12 -14 16 0 4 6 12 14 16 8 6 9 9 1 9 -7 0 -10 12 -7 34 5 43 -6 51 -35
25 -11 -11 -40 -27 -64 -36 -73 -27 -200 -24 -196 5 1 4 0 10 -1 15 -4 17 -3
75 4 108 8 47 31 94 68 141 l29 37 -43 23 c-110 58 -137 60 -218 19z m-40
-128 c0 12 50 -24 60 -44 17 -32 21 -84 7 -102 -10 -15 -17 -16 -41 -7 -50 19
-77 59 -74 110 2 45 24 70 40 46 4 -6 8 -8 8 -3z"/>
<path d="M675 823 c-41 -10 -126 -56 -122 -66 2 -6 12 -15 22 -21 125 -71 152
-101 160 -174 2 -20 4 -38 4 -40 1 -2 12 10 26 26 24 29 55 90 62 122 8 40 8
120 1 120 -5 0 -7 4 -4 9 11 17 -19 28 -74 29 -30 0 -64 -2 -75 -5z"/>
</g>
</svg>
