<?xml version="1.0" encoding="UTF-8"?>
<svg width="17px" height="17px" viewBox="0 0 17 17" version="1.1" xmlns="http://www.w3.org/2000/svg"
     xmlns:xlink="http://www.w3.org/1999/xlink">
    <title>Compass</title>
    <g id="Compass" stroke="none" stroke-width="1" fill="none" fill-rule="evenodd">
        <path d="M8.5,0.0625 C9.67317708,0.0625 10.777181,0.283854167 11.8120117,0.7265625 C12.8468424,1.16927083 13.7488607,1.77522786 14.5180664,2.54443359 C15.2872721,3.31363932 15.8932292,4.21565755 16.3359375,5.25048828 C16.7786458,6.28531901 17,7.38932292 17,8.5625 C17,9.73567708 16.7786458,10.839681 16.3359375,11.8745117 C15.8932292,12.9093424 15.2872721,13.8113607 14.5180664,14.5805664 C13.7488607,15.3497721 12.8468424,15.9557292 11.8120117,16.3984375 C10.777181,16.8411458 9.67317708,17.0625 8.5,17.0625 C7.32682292,17.0625 6.22281901,16.8411458 5.18798828,16.3984375 C4.15315755,15.9557292 3.25113932,15.3497721 2.48193359,14.5805664 C1.71272786,13.8113607 1.10677083,12.9093424 0.6640625,11.8745117 C0.221354167,10.839681 0,9.73567708 0,8.5625 C0,7.38932292 0.221354167,6.28531901 0.6640625,5.25048828 C1.10677083,4.21565755 1.71272786,3.31363932 2.48193359,2.54443359 C3.25113932,1.77522786 4.15315755,1.16927083 5.18798828,0.7265625 C6.22281901,0.283854167 7.32682292,0.0625 8.5,0.0625 Z M8.5,1.55475725 C7.53989955,1.55475725 6.63916016,1.73800223 5.79778181,2.10449219 C4.95640346,2.47098214 4.22342355,2.96651786 3.59884208,3.59109933 C2.9742606,4.2156808 2.47872489,4.94866071 2.11223493,5.79003906 C1.74574498,6.63141741 1.5625,7.53215681 1.5625,8.49225725 C1.5625,9.4523577 1.74574498,10.3530971 2.11223493,11.1944754 C2.47872489,12.0358538 2.9742606,12.7714146 3.59884208,13.4011579 C4.22342355,14.0309012 4.95640346,14.5290179 5.79778181,14.8955078 C6.63916016,15.2619978 7.53989955,15.4452427 8.5,15.4452427 C9.46010045,15.4452427 10.3608398,15.2619978 11.2022182,14.8955078 C12.0435965,14.5290179 12.7765765,14.0309012 13.4011579,13.4011579 C14.0257394,12.7714146 14.5212751,12.0358538 14.8877651,11.1944754 C15.254255,10.3530971 15.4375,9.4523577 15.4375,8.49225725 C15.4375,7.53215681 15.254255,6.63141741 14.8877651,5.79003906 C14.5212751,4.94866071 14.0257394,4.2156808 13.4011579,3.59109933 C12.7765765,2.96651786 12.0435965,2.47098214 11.2022182,2.10449219 C10.3608398,1.73800223 9.46010045,1.55475725 8.5,1.55475725 Z M12.3755425,4.66297743 L12.484375,4.66943359 C12.5950521,4.68603516 12.6891276,4.73307292 12.7666016,4.81054688 C12.8330078,4.88802083 12.8745117,4.98209635 12.8911133,5.09277344 C12.9077148,5.20345052 12.8883464,5.30859375 12.8330078,5.40820313 L12.8330078,5.40820313 L10.3261719,10.3388672 C10.3040365,10.383138 10.2736003,10.421875 10.2348633,10.4550781 C10.1961263,10.4882812 10.1546224,10.5159505 10.1103516,10.5380859 L10.1103516,10.5380859 L5.03027344,12.6464844 C4.99707031,12.6686198 4.96386719,12.6824544 4.93066406,12.6879883 C4.89746094,12.6935221 4.85872396,12.6962891 4.81445313,12.6962891 C4.74804688,12.6962891 4.68440755,12.6824544 4.62353516,12.6547852 C4.56266276,12.6271159 4.51009115,12.5911458 4.46582031,12.546875 C4.38834635,12.469401 4.34130859,12.3780924 4.32470703,12.2729492 C4.30810547,12.167806 4.3219401,12.0654297 4.36621094,11.9658203 L4.36621094,11.9658203 L6.75683594,7.16796875 C6.77897135,7.12369792 6.80940755,7.08219401 6.84814453,7.04345703 C6.88688151,7.00472005 6.92838542,6.97428385 6.97265625,6.95214844 L6.97265625,6.95214844 L12.1689453,4.7109375 C12.2685547,4.66666667 12.3736979,4.65283203 12.484375,4.66943359 Z M7.38769531,8.14746094 L5.94335938,11.1025391 L8.84863281,9.97363281 L7.38769531,8.14746094 Z M11.1728516,6.35449219 L8.234375,7.5 L9.71191406,9.359375 L11.1728516,6.35449219 Z"
              id="compass" fill="#F5F5F5" fill-rule="nonzero"></path>
    </g>
</svg>